<svg xmlns="http://www.w3.org/2000/svg" xmlns:xlink="http://www.w3.org/1999/xlink" width="500" zoomAndPan="magnify" viewBox="0 0 375 187.499995" height="250" preserveAspectRatio="xMidYMid meet" version="1.0"><defs><g/><clipPath id="98309d24fa"><path d="M 210 27 L 292.992188 27 L 292.992188 106 L 210 106 Z M 210 27 " clip-rule="nonzero"/></clipPath><clipPath id="eba96a2883"><path d="M 223 32 L 292.992188 32 L 292.992188 106 L 223 106 Z M 223 32 " clip-rule="nonzero"/></clipPath><clipPath id="40d563e08a"><rect x="0" width="329" y="0" height="100"/></clipPath></defs><path fill="#ff2c19" d="M 142.917969 26.03125 L 93.414062 30.753906 C 86.5 31.414062 82.054688 39 83.867188 47.046875 L 93.355469 89.140625 C 95.140625 97.058594 102.222656 102.023438 108.710938 99.90625 L 129.246094 93.203125 C 131.417969 92.496094 133.832031 93.039062 135.765625 94.675781 L 153.585938 107.703125 C 154.140625 108.109375 154.792969 107.570312 154.625 106.839844 L 150.574219 89.277344 C 150.207031 87.6875 150.933594 86.125 152.242188 85.699219 L 156.019531 84.464844 C 161.066406 82.820312 163.875 76.789062 162.453125 70.636719 L 154.398438 35.6875 C 153.015625 29.699219 148.074219 25.539062 142.917969 26.03125 " fill-opacity="1" fill-rule="nonzero"/><path fill="#e62816" d="M 154.625 106.839844 L 153.402344 101.542969 L 134.800781 88.585938 C 133.230469 87.488281 131.238281 87.195312 129.414062 87.789062 L 111.773438 93.546875 C 101.507812 96.960938 99.257812 93.121094 96.417969 82.78125 L 86.929688 40.691406 C 86.421875 38.429688 86.40625 36.210938 86.800781 34.167969 C 84.023438 37.261719 82.746094 42.066406 83.867188 47.046875 L 93.355469 89.140625 C 95.140625 97.058594 102.222656 102.023438 108.710938 99.90625 L 129.246094 93.203125 C 131.417969 92.496094 133.832031 93.039062 135.765625 94.675781 L 153.585938 107.703125 C 154.140625 108.109375 154.792969 107.570312 154.625 106.839844 " fill-opacity="1" fill-rule="nonzero"/><g clip-path="url(#98309d24fa)"><path fill="#25bf6a" d="M 281.410156 29.207031 L 227.9375 27.554688 C 222.488281 27.386719 217.644531 31.855469 216.691406 37.925781 L 211.128906 73.359375 C 210.152344 79.597656 213.597656 85.445312 219.03125 86.777344 L 223.097656 87.773438 C 224.503906 88.117188 225.394531 89.628906 225.144531 91.242188 L 223.199219 103.632812 C 223.019531 104.761719 224.046875 105.59375 224.960938 105.066406 L 242.199219 94.871094 C 243.910156 93.746094 245.929688 93.359375 247.855469 93.828125 L 271.023438 99.5 C 277.433594 101.070312 283.878906 96.109375 284.996094 88.746094 L 291.839844 43.601562 C 292.976562 36.117188 288.121094 29.417969 281.410156 29.207031 " fill-opacity="1" fill-rule="nonzero"/></g><g clip-path="url(#eba96a2883)"><path fill="#20a65c" d="M 288.191406 32.097656 C 288.808594 34.035156 289 36.195312 288.660156 38.421875 L 281.816406 83.566406 C 280.542969 92.855469 276.5 96.628906 267.84375 94.320312 L 247.550781 89.355469 C 245.707031 88.902344 243.757812 89.191406 242.121094 90.152344 L 223.605469 101.039062 L 223.199219 103.632812 C 223.019531 104.761719 224.046875 105.59375 224.960938 105.066406 L 242.199219 94.871094 C 243.910156 93.746094 245.929688 93.359375 247.855469 93.828125 L 271.023438 99.5 C 277.433594 101.070312 283.878906 96.109375 284.996094 88.746094 L 291.839844 43.601562 C 292.53125 39.046875 291.003906 34.785156 288.191406 32.097656 " fill-opacity="1" fill-rule="nonzero"/></g><path fill="#e3e3e3" d="M 150.847656 86.917969 C 151.152344 86.339844 151.632812 85.898438 152.242188 85.699219 L 152.265625 85.691406 C 151.5 85.980469 151.238281 86.308594 150.847656 86.917969 M 152.785156 85.523438 L 152.792969 85.519531 L 152.789062 85.523438 C 152.785156 85.523438 152.785156 85.523438 152.785156 85.523438 M 153.996094 85.125 L 156.019531 84.464844 C 161.066406 82.820312 163.875 76.789062 162.453125 70.636719 L 154.398438 35.6875 C 153.347656 31.140625 150.246094 27.648438 146.5625 26.445312 L 226.71875 27.59375 C 221.78125 28.066406 217.574219 32.3125 216.691406 37.925781 L 211.128906 73.359375 C 210.597656 76.753906 211.375 80.035156 213.070312 82.535156 L 153.996094 85.125 M 215.058594 84.746094 C 214.34375 84.152344 213.710938 83.460938 213.179688 82.691406 C 213.722656 83.460938 214.351562 84.152344 215.058594 84.746094 M 234.546875 27.761719 L 231.371094 27.660156 L 234.546875 27.761719 M 136.445312 26.648438 L 139.613281 26.347656 L 136.445312 26.648438 " fill-opacity="1" fill-rule="nonzero"/><path fill="#e32716" d="M 150.847656 86.917969 C 146.707031 83.980469 143.792969 79.125 143.195312 73.414062 L 136.445312 26.648438 L 139.613281 26.347656 L 146.5625 26.445312 C 150.246094 27.648438 153.347656 31.140625 154.398438 35.6875 L 162.453125 70.636719 C 163.875 76.789062 161.066406 82.820312 156.019531 84.464844 L 153.996094 85.125 L 153.980469 85.128906 L 152.792969 85.519531 L 152.785156 85.523438 C 152.589844 85.578125 152.417969 85.632812 152.265625 85.691406 L 152.242188 85.699219 C 151.632812 85.898438 151.152344 86.339844 150.847656 86.917969 " fill-opacity="1" fill-rule="nonzero"/><path fill="#21aa5e" d="M 215.960938 85.425781 L 215.734375 85.265625 C 215.5 85.101562 215.277344 84.929688 215.058594 84.746094 C 214.351562 84.152344 213.722656 83.460938 213.179688 82.691406 C 213.144531 82.640625 213.109375 82.585938 213.074219 82.535156 L 213.070312 82.535156 C 211.375 80.035156 210.597656 76.753906 211.128906 73.359375 L 216.691406 37.925781 C 217.574219 32.3125 221.78125 28.066406 226.71875 27.59375 L 231.371094 27.660156 L 234.546875 27.761719 C 234.546875 27.996094 234.542969 28.222656 234.542969 28.4375 L 234.542969 68.378906 C 234.542969 72.519531 233.136719 76.488281 230.585938 79.550781 C 227.96875 82.691406 224.390625 84.605469 220.503906 84.941406 L 215.960938 85.425781 " fill-opacity="1" fill-rule="nonzero"/><path fill="#ffbb02" d="M 231.539062 13.804688 C 231.25 7.46875 225.726562 2.65625 219.40625 3.167969 L 162.199219 4.28125 C 160.222656 4.316406 150.863281 4.535156 149.015625 5.242188 C 143.410156 7.382812 140.738281 11.796875 139.6875 16.976562 C 139.113281 19.796875 139.074219 22.703125 139.5 25.550781 L 146.347656 73.023438 C 147.175781 81.164062 153.664062 87.320312 161.195312 86.691406 L 182.804688 84.648438 C 183.546875 84.585938 184.226562 85.105469 184.441406 85.898438 L 190.722656 99.375 C 190.839844 99.625 190.9375 99.886719 191.039062 100.144531 C 191.753906 101.933594 194.09375 102.058594 194.910156 100.21875 L 201.882812 84.5625 C 202.125 84.015625 202.605469 83.648438 203.152344 83.589844 L 220.199219 81.773438 C 226.496094 81.25 231.363281 75.410156 231.363281 68.378906 L 231.363281 28.4375 C 231.363281 25.136719 231.785156 19.175781 231.539062 13.804688 " fill-opacity="1" fill-rule="nonzero"/><path fill="#e8aa02" d="M 181.683594 82.457031 C 181.46875 81.664062 180.789062 81.144531 180.046875 81.203125 L 158.4375 83.25 C 154.679688 83.5625 151.183594 82.1875 148.519531 79.714844 C 151.1875 84.261719 155.9375 87.132812 161.195312 86.691406 L 182.710938 84.65625 L 181.683594 82.457031 " fill-opacity="1" fill-rule="nonzero"/><path fill="#e8aa02" d="M 231.539062 13.804688 C 231.390625 10.554688 229.867188 7.703125 227.558594 5.769531 C 228.273438 7.148438 228.707031 8.703125 228.785156 10.359375 C 229.03125 15.730469 228.605469 21.691406 228.605469 24.992188 L 228.605469 64.933594 C 228.902344 73.667969 225.101562 77.996094 217.441406 78.332031 L 200.394531 80.144531 C 199.847656 80.203125 199.367188 80.574219 199.125 81.121094 L 192.15625 96.773438 C 191.734375 97.714844 190.917969 98.140625 190.125 98.09375 L 190.722656 99.375 C 190.839844 99.625 190.9375 99.886719 191.039062 100.144531 C 191.753906 101.933594 194.09375 102.058594 194.910156 100.21875 L 201.882812 84.5625 C 202.125 84.015625 202.605469 83.648438 203.152344 83.589844 L 220.199219 81.773438 C 226.496094 81.25 231.363281 75.410156 231.363281 68.378906 L 231.363281 28.4375 C 231.363281 25.136719 231.785156 19.175781 231.539062 13.804688 " fill-opacity="1" fill-rule="nonzero"/><path fill="#ffffff" d="M 200.277344 24.355469 C 197.351562 21.765625 193.398438 19.980469 188.449219 19.980469 C 183.742188 19.980469 179.960938 21.753906 177.066406 24.308594 C 175.515625 25.675781 174.351562 27.199219 173.566406 28.882812 C 172.410156 31.363281 174.246094 34.207031 176.980469 34.207031 C 178.828125 34.207031 180.527344 33.171875 181.347656 31.519531 C 181.878906 30.457031 182.539062 29.589844 183.339844 28.910156 C 184.8125 27.664062 186.644531 27.039062 188.832031 27.039062 C 191.101562 27.039062 192.90625 27.636719 194.246094 28.835938 C 195.585938 30.03125 196.257812 31.46875 196.257812 33.144531 C 196.257812 34.351562 195.878906 35.457031 195.121094 36.457031 C 194.628906 37.09375 193.125 38.433594 190.609375 40.476562 C 188.382812 42.289062 186.808594 43.941406 185.898438 45.433594 C 185.71875 45.726562 185.5625 46.035156 185.429688 46.351562 C 184.757812 47.945312 184.832031 52.351562 184.660156 55.863281 C 184.546875 58.117188 185.765625 60.007812 188.019531 60.039062 L 188.589844 60.039062 C 190.734375 60.070312 192.519531 58.394531 192.628906 56.246094 C 192.777344 53.324219 192.488281 49.972656 192.773438 49.375 C 193.214844 48.457031 194.34375 47.238281 196.164062 45.726562 C 199.683594 42.800781 201.980469 40.488281 203.050781 38.789062 C 204.125 37.09375 204.664062 35.292969 204.664062 33.390625 C 204.664062 29.953125 203.199219 26.941406 200.277344 24.355469 " fill-opacity="1" fill-rule="nonzero"/><path fill="#ffffff" d="M 184.269531 68.75 C 184.269531 66.171875 186.359375 64.082031 188.9375 64.082031 C 191.519531 64.082031 193.609375 66.171875 193.609375 68.75 C 193.609375 71.332031 191.519531 73.421875 188.9375 73.421875 C 186.359375 73.421875 184.269531 71.332031 184.269531 68.75 " fill-opacity="1" fill-rule="nonzero"/><path fill="#ffffff" d="M 268.785156 46.898438 C 267.226562 43.984375 264.617188 41.398438 260.691406 39.9375 C 256.957031 38.546875 253.429688 38.832031 250.378906 40.007812 C 248.746094 40.636719 247.371094 41.503906 246.25 42.605469 C 244.597656 44.234375 245.214844 47.03125 247.386719 47.839844 C 248.851562 48.382812 250.507812 48.066406 251.648438 46.996094 C 252.378906 46.308594 253.164062 45.816406 254 45.515625 C 255.535156 44.957031 257.171875 45.003906 258.910156 45.652344 C 260.710938 46.320312 261.96875 47.328125 262.675781 48.675781 C 263.386719 50.019531 263.496094 51.359375 263 52.691406 C 262.644531 53.648438 262.015625 54.414062 261.121094 54.984375 C 260.542969 55.34375 258.953125 55.960938 256.351562 56.84375 C 254.046875 57.621094 252.3125 58.46875 251.148438 59.382812 C 250.917969 59.5625 250.707031 59.761719 250.503906 59.976562 C 249.5 61.039062 248.257812 64.558594 247.085938 67.296875 C 246.332031 69.050781 246.738281 70.914062 248.519531 71.601562 L 248.96875 71.769531 C 250.664062 72.429688 252.574219 71.625 253.296875 69.953125 C 254.277344 67.679688 255.039062 64.933594 255.441406 64.542969 C 256.0625 63.941406 257.320312 63.308594 259.210938 62.648438 C 262.867188 61.363281 265.371094 60.207031 266.726562 59.179688 C 268.078125 58.148438 269.035156 56.878906 269.597656 55.367188 C 270.613281 52.640625 270.34375 49.816406 268.785156 46.898438 " fill-opacity="1" fill-rule="nonzero"/><path fill="#ffffff" d="M 242.96875 77.410156 C 243.730469 75.363281 246.007812 74.320312 248.054688 75.082031 C 250.101562 75.84375 251.144531 78.121094 250.382812 80.167969 C 249.621094 82.214844 247.34375 83.257812 245.296875 82.496094 C 243.246094 81.734375 242.207031 79.457031 242.96875 77.410156 " fill-opacity="1" fill-rule="nonzero"/><path fill="#ffffff" d="M 124.570312 40.96875 C 121.894531 39.914062 118.710938 39.671875 115.285156 40.917969 C 112.03125 42.101562 109.859375 44.277344 108.5 46.777344 C 107.773438 48.109375 107.351562 49.460938 107.230469 50.820312 C 107.054688 52.828125 109.039062 54.332031 110.933594 53.644531 C 112.210938 53.179688 113.125 52.039062 113.277344 50.6875 C 113.375 49.820312 113.617188 49.050781 114 48.382812 C 114.703125 47.148438 115.8125 46.253906 117.328125 45.703125 C 118.898438 45.132812 120.296875 45.09375 121.523438 45.582031 C 122.753906 46.074219 123.578125 46.898438 124 48.058594 C 124.304688 48.894531 124.320312 49.753906 124.046875 50.636719 C 123.867188 51.199219 123.164062 52.507812 121.9375 54.554688 C 120.851562 56.371094 120.179688 57.90625 119.925781 59.167969 C 119.875 59.417969 119.847656 59.667969 119.832031 59.921875 C 119.769531 61.191406 120.929688 64.222656 121.691406 66.695312 C 122.183594 68.28125 123.5 69.285156 125.070312 68.738281 L 125.460938 68.597656 C 126.957031 68.078125 127.765625 66.46875 127.300781 64.957031 C 126.671875 62.898438 125.628906 60.652344 125.675781 60.164062 C 125.746094 59.417969 126.222656 58.292969 127.101562 56.785156 C 128.800781 53.878906 129.804688 51.699219 130.121094 50.257812 C 130.4375 48.8125 130.355469 47.429688 129.878906 46.113281 C 129.011719 43.738281 127.242188 42.023438 124.570312 40.96875 " fill-opacity="1" fill-rule="nonzero"/><path fill="#ffffff" d="M 124.664062 75.710938 C 124.015625 73.925781 124.9375 71.953125 126.722656 71.304688 C 128.507812 70.65625 130.480469 71.574219 131.128906 73.359375 C 131.777344 75.144531 130.855469 77.117188 129.070312 77.765625 C 127.285156 78.417969 125.3125 77.496094 124.664062 75.710938 " fill-opacity="1" fill-rule="nonzero"/><g transform="matrix(1, 0, 0, 1, 16, 86)"><g clip-path="url(#40d563e08a)"><g fill="#011b49" fill-opacity="0.4"><g transform="translate(3.975054, 80.913891)"><g><path d="M 49.421875 -1.859375 L 46.75 -4.125 C 44.050781 -2.40625 41.40625 -1.148438 38.8125 -0.359375 C 36.21875 0.421875 33.488281 0.8125 30.625 0.8125 C 26.738281 0.8125 23.078125 0.0820312 19.640625 -1.375 C 16.210938 -2.832031 13.226562 -4.816406 10.6875 -7.328125 C 8.15625 -9.835938 6.144531 -12.796875 4.65625 -16.203125 C 3.175781 -19.609375 2.4375 -23.226562 2.4375 -27.0625 C 2.4375 -30.894531 3.164062 -34.5 4.625 -37.875 C 6.082031 -41.257812 8.078125 -44.207031 10.609375 -46.71875 C 13.148438 -49.226562 16.125 -51.210938 19.53125 -52.671875 C 22.9375 -54.128906 26.554688 -54.859375 30.390625 -54.859375 C 34.273438 -54.859375 37.921875 -54.113281 41.328125 -52.625 C 44.734375 -51.144531 47.703125 -49.132812 50.234375 -46.59375 C 52.773438 -44.050781 54.785156 -41.078125 56.265625 -37.671875 C 57.753906 -34.273438 58.5 -30.628906 58.5 -26.734375 C 58.5 -24.359375 58.226562 -22.128906 57.6875 -20.046875 C 57.15625 -17.972656 56.265625 -15.75 55.015625 -13.375 L 57.453125 -11.1875 L 58.5 -10.296875 C 60.226562 -8.722656 61.09375 -7.046875 61.09375 -5.265625 C 61.09375 -3.535156 60.5 -2.0625 59.3125 -0.84375 C 58.125 0.363281 56.664062 0.96875 54.9375 0.96875 C 53.425781 0.96875 51.941406 0.320312 50.484375 -0.96875 Z M 30.546875 -42.546875 C 28.390625 -42.546875 26.363281 -42.140625 24.46875 -41.328125 C 22.582031 -40.515625 20.921875 -39.40625 19.484375 -38 C 18.054688 -36.59375 16.9375 -34.941406 16.125 -33.046875 C 15.3125 -31.160156 14.90625 -29.164062 14.90625 -27.0625 C 14.90625 -24.90625 15.320312 -22.878906 16.15625 -20.984375 C 17 -19.097656 18.125 -17.4375 19.53125 -16 C 20.9375 -14.570312 22.597656 -13.453125 24.515625 -12.640625 C 26.429688 -11.828125 28.46875 -11.421875 30.625 -11.421875 C 32.738281 -11.421875 34.738281 -11.828125 36.625 -12.640625 C 38.519531 -13.453125 40.15625 -14.554688 41.53125 -15.953125 C 42.90625 -17.359375 44 -18.992188 44.8125 -20.859375 C 45.625 -22.722656 46.03125 -24.738281 46.03125 -26.90625 C 46.03125 -29.007812 45.625 -31.019531 44.8125 -32.9375 C 44 -34.851562 42.875 -36.515625 41.4375 -37.921875 C 40.007812 -39.328125 38.363281 -40.445312 36.5 -41.28125 C 34.632812 -42.125 32.648438 -42.546875 30.546875 -42.546875 Z M 30.546875 -42.546875 "/></g></g></g><g fill="#011b49" fill-opacity="0.4"><g transform="translate(62.791337, 80.913891)"><g><path d="M 28.609375 -18.96875 L 28.609375 -32.90625 C 28.660156 -34.738281 29.171875 -36.191406 30.140625 -37.265625 C 31.117188 -38.347656 32.414062 -38.890625 34.03125 -38.890625 C 35.601562 -38.890625 36.882812 -38.335938 37.875 -37.234375 C 38.875 -36.128906 39.375 -34.6875 39.375 -32.90625 L 39.375 -18.0625 C 39.375 -15.414062 39.078125 -13.117188 38.484375 -11.171875 C 37.890625 -9.234375 36.921875 -7.425781 35.578125 -5.75 C 33.953125 -3.695312 31.953125 -2.085938 29.578125 -0.921875 C 27.203125 0.234375 24.71875 0.8125 22.125 0.8125 C 19.09375 0.8125 16.210938 0.0390625 13.484375 -1.5 C 10.765625 -3.039062 8.59375 -5.132812 6.96875 -7.78125 C 6.207031 -9.019531 5.625 -10.554688 5.21875 -12.390625 C 4.820312 -14.234375 4.625 -16.207031 4.625 -18.3125 L 4.625 -32.90625 C 4.675781 -34.738281 5.171875 -36.191406 6.109375 -37.265625 C 7.054688 -38.347656 8.34375 -38.890625 9.96875 -38.890625 C 11.582031 -38.890625 12.890625 -38.335938 13.890625 -37.234375 C 14.890625 -36.128906 15.390625 -34.6875 15.390625 -32.90625 L 15.390625 -19.28125 C 15.390625 -17.664062 15.441406 -16.503906 15.546875 -15.796875 C 15.660156 -15.097656 15.851562 -14.425781 16.125 -13.78125 C 16.613281 -12.695312 17.410156 -11.789062 18.515625 -11.0625 C 19.617188 -10.332031 20.796875 -9.96875 22.046875 -9.96875 C 23.929688 -9.96875 25.492188 -10.640625 26.734375 -11.984375 C 27.984375 -13.335938 28.609375 -14.988281 28.609375 -16.9375 Z M 28.609375 -18.96875 "/></g></g></g><g fill="#011b49" fill-opacity="0.4"><g transform="translate(103.784306, 80.913891)"><g><path d="M 5.03125 -6.640625 L 5.03125 -32.90625 C 5.082031 -34.738281 5.59375 -36.191406 6.5625 -37.265625 C 7.53125 -38.347656 8.800781 -38.890625 10.375 -38.890625 C 11.988281 -38.890625 13.296875 -38.335938 14.296875 -37.234375 C 15.296875 -36.128906 15.796875 -34.6875 15.796875 -32.90625 L 15.796875 -5.421875 C 15.742188 -3.585938 15.226562 -2.128906 14.25 -1.046875 C 13.28125 0.0234375 12.015625 0.5625 10.453125 0.5625 C 8.828125 0.5625 7.515625 0.0078125 6.515625 -1.09375 C 5.523438 -2.195312 5.03125 -3.640625 5.03125 -5.421875 Z M 10.375 -54.125 C 12.15625 -54.125 13.664062 -53.503906 14.90625 -52.265625 C 16.15625 -51.023438 16.78125 -49.515625 16.78125 -47.734375 C 16.78125 -45.941406 16.144531 -44.410156 14.875 -43.140625 C 13.601562 -41.878906 12.046875 -41.25 10.203125 -41.25 C 9.335938 -41.25 8.515625 -41.421875 7.734375 -41.765625 C 6.953125 -42.117188 6.265625 -42.578125 5.671875 -43.140625 C 5.078125 -43.710938 4.601562 -44.375 4.25 -45.125 C 3.90625 -45.882812 3.734375 -46.695312 3.734375 -47.5625 C 3.734375 -49.457031 4.363281 -51.023438 5.625 -52.265625 C 6.894531 -53.503906 8.476562 -54.125 10.375 -54.125 Z M 10.375 -54.125 "/></g></g></g><g fill="#011b49" fill-opacity="0.4"><g transform="translate(121.282909, 80.913891)"><g><path d="M 8.015625 0 C 7.265625 0 6.644531 -0.0390625 6.15625 -0.125 C 5.664062 -0.207031 5.15625 -0.378906 4.625 -0.640625 C 3.757812 -1.078125 3.039062 -1.765625 2.46875 -2.703125 C 1.90625 -3.648438 1.625 -4.585938 1.625 -5.515625 C 1.625 -5.890625 1.648438 -6.222656 1.703125 -6.515625 C 1.753906 -6.816406 1.859375 -7.128906 2.015625 -7.453125 C 2.179688 -7.773438 2.425781 -8.164062 2.75 -8.625 C 3.070312 -9.082031 3.476562 -9.640625 3.96875 -10.296875 L 17.90625 -28.4375 L 8.109375 -28.4375 C 6.429688 -28.488281 5.09375 -28.960938 4.09375 -29.859375 C 3.09375 -30.753906 2.59375 -31.929688 2.59375 -33.390625 C 2.59375 -34.898438 3.101562 -36.097656 4.125 -36.984375 C 5.15625 -37.878906 6.484375 -38.328125 8.109375 -38.328125 L 26.90625 -38.328125 C 28.90625 -38.328125 30.507812 -37.8125 31.71875 -36.78125 C 32.9375 -35.757812 33.546875 -34.382812 33.546875 -32.65625 C 33.546875 -31.625 33.085938 -30.488281 32.171875 -29.25 L 17.34375 -9.890625 L 28.4375 -9.890625 C 30.113281 -9.835938 31.4375 -9.363281 32.40625 -8.46875 C 33.382812 -7.570312 33.875 -6.394531 33.875 -4.9375 C 33.875 -3.476562 33.375 -2.289062 32.375 -1.375 C 31.375 -0.457031 30.0625 0 28.4375 0 Z M 8.015625 0 "/></g></g></g><g fill="#011b49" fill-opacity="0.4"><g transform="translate(153.769307, 80.913891)"><g/></g></g><g fill="#011b49" fill-opacity="0.4"><g transform="translate(171.844187, 80.913891)"><g><path d="M 5.921875 -7.78125 L 5.921875 -46.84375 C 6.023438 -51.644531 8.425781 -54.046875 13.125 -54.046875 L 35.984375 -54.046875 C 37.921875 -53.992188 39.457031 -53.46875 40.59375 -52.46875 C 41.726562 -51.46875 42.296875 -50.101562 42.296875 -48.375 C 42.296875 -46.644531 41.710938 -45.265625 40.546875 -44.234375 C 39.390625 -43.210938 37.867188 -42.703125 35.984375 -42.703125 L 18.3125 -42.703125 L 18.3125 -32.171875 L 32.171875 -32.171875 C 33.898438 -32.117188 35.289062 -31.628906 36.34375 -30.703125 C 37.394531 -29.785156 37.921875 -28.546875 37.921875 -26.984375 C 37.921875 -25.472656 37.394531 -24.242188 36.34375 -23.296875 C 35.289062 -22.347656 33.898438 -21.875 32.171875 -21.875 L 18.3125 -21.875 L 18.3125 -6.40625 C 18.3125 -4.289062 17.753906 -2.597656 16.640625 -1.328125 C 15.535156 -0.0664062 14.039062 0.5625 12.15625 0.5625 C 10.257812 0.5625 8.742188 -0.0820312 7.609375 -1.375 C 6.484375 -2.675781 5.921875 -4.351562 5.921875 -6.40625 Z M 5.921875 -7.78125 "/></g></g></g><g fill="#011b49" fill-opacity="0.4"><g transform="translate(212.189033, 80.913891)"><g><path d="M 4.859375 -48.046875 C 4.859375 -49.890625 5.359375 -51.347656 6.359375 -52.421875 C 7.359375 -53.503906 8.671875 -54.046875 10.296875 -54.046875 C 11.910156 -54.046875 13.203125 -53.488281 14.171875 -52.375 C 15.148438 -51.269531 15.640625 -49.828125 15.640625 -48.046875 L 15.640625 -5.671875 C 15.640625 -3.722656 15.164062 -2.195312 14.21875 -1.09375 C 13.269531 0.0078125 11.960938 0.5625 10.296875 0.5625 C 8.671875 0.5625 7.359375 0.0078125 6.359375 -1.09375 C 5.359375 -2.195312 4.859375 -3.640625 4.859375 -5.421875 Z M 4.859375 -48.046875 "/></g></g></g><g fill="#011b49" fill-opacity="0.4"><g transform="translate(229.687637, 80.913891)"><g><path d="M 22.453125 -39.140625 C 25.203125 -39.140625 27.789062 -38.613281 30.21875 -37.5625 C 32.65625 -36.507812 34.773438 -35.078125 36.578125 -33.265625 C 38.390625 -31.453125 39.820312 -29.328125 40.875 -26.890625 C 41.925781 -24.460938 42.453125 -21.847656 42.453125 -19.046875 C 42.453125 -16.335938 41.925781 -13.78125 40.875 -11.375 C 39.820312 -8.976562 38.378906 -6.875 36.546875 -5.0625 C 34.710938 -3.25 32.578125 -1.816406 30.140625 -0.765625 C 27.710938 0.285156 25.117188 0.8125 22.359375 0.8125 C 19.609375 0.8125 17.003906 0.300781 14.546875 -0.71875 C 12.085938 -1.75 9.953125 -3.15625 8.140625 -4.9375 C 6.328125 -6.71875 4.878906 -8.796875 3.796875 -11.171875 C 2.722656 -13.554688 2.1875 -16.097656 2.1875 -18.796875 C 2.1875 -21.660156 2.710938 -24.332031 3.765625 -26.8125 C 4.816406 -29.300781 6.25 -31.453125 8.0625 -33.265625 C 9.875 -35.078125 12.007812 -36.507812 14.46875 -37.5625 C 16.925781 -38.613281 19.585938 -39.140625 22.453125 -39.140625 Z M 22.453125 -28.359375 C 21.148438 -28.359375 19.929688 -28.113281 18.796875 -27.625 C 17.660156 -27.144531 16.671875 -26.484375 15.828125 -25.640625 C 14.992188 -24.804688 14.347656 -23.820312 13.890625 -22.6875 C 13.429688 -21.550781 13.203125 -20.3125 13.203125 -18.96875 C 13.203125 -17.769531 13.445312 -16.628906 13.9375 -15.546875 C 14.425781 -14.472656 15.085938 -13.53125 15.921875 -12.71875 C 16.753906 -11.90625 17.722656 -11.269531 18.828125 -10.8125 C 19.941406 -10.351562 21.117188 -10.125 22.359375 -10.125 C 23.609375 -10.125 24.785156 -10.367188 25.890625 -10.859375 C 26.992188 -11.347656 27.960938 -11.992188 28.796875 -12.796875 C 29.640625 -13.609375 30.300781 -14.566406 30.78125 -15.671875 C 31.269531 -16.785156 31.515625 -17.960938 31.515625 -19.203125 C 31.515625 -20.503906 31.269531 -21.707031 30.78125 -22.8125 C 30.300781 -23.914062 29.65625 -24.875 28.84375 -25.6875 C 28.03125 -26.5 27.070312 -27.144531 25.96875 -27.625 C 24.863281 -28.113281 23.691406 -28.359375 22.453125 -28.359375 Z M 22.453125 -28.359375 "/></g></g></g><g fill="#011b49" fill-opacity="0.4"><g transform="translate(271.328729, 80.913891)"><g><path d="M 11.1875 -3.890625 L 1.375 -30.390625 L 0.96875 -31.515625 C 0.644531 -32.378906 0.484375 -33.242188 0.484375 -34.109375 C 0.484375 -35.515625 1.007812 -36.703125 2.0625 -37.671875 C 3.113281 -38.648438 4.34375 -39.140625 5.75 -39.140625 C 8.289062 -39.140625 10.019531 -37.734375 10.9375 -34.921875 L 11.265625 -33.875 L 16.453125 -17.984375 L 22.53125 -34.515625 C 23.125 -36.085938 23.835938 -37.238281 24.671875 -37.96875 C 25.515625 -38.695312 26.632812 -39.0625 28.03125 -39.0625 C 30.519531 -39.0625 32.273438 -37.707031 33.296875 -35 L 39.546875 -17.984375 L 44.328125 -33.546875 L 44.640625 -34.765625 C 45.671875 -37.679688 47.457031 -39.140625 50 -39.140625 C 51.457031 -39.140625 52.722656 -38.625 53.796875 -37.59375 C 54.878906 -36.570312 55.421875 -35.332031 55.421875 -33.875 C 55.421875 -33.007812 55.257812 -32.144531 54.9375 -31.28125 L 54.53125 -30.140625 L 45.140625 -3.8125 C 44.546875 -2.1875 43.851562 -1.050781 43.0625 -0.40625 C 42.28125 0.238281 41.21875 0.5625 39.875 0.5625 C 38.46875 0.5625 37.367188 0.238281 36.578125 -0.40625 C 35.796875 -1.050781 35.054688 -2.1875 34.359375 -3.8125 L 27.953125 -19.765625 L 21.796875 -3.890625 C 21.097656 -2.160156 20.382812 -0.984375 19.65625 -0.359375 C 18.925781 0.253906 17.859375 0.5625 16.453125 0.5625 C 14.015625 0.5625 12.363281 -0.570312 11.5 -2.84375 Z M 11.1875 -3.890625 "/></g></g></g><g fill="#011b49" fill-opacity="1"><g transform="translate(0.393886, 77.332721)"><g><path d="M 49.421875 -1.859375 L 46.75 -4.125 C 44.050781 -2.40625 41.40625 -1.148438 38.8125 -0.359375 C 36.21875 0.421875 33.488281 0.8125 30.625 0.8125 C 26.738281 0.8125 23.078125 0.0820312 19.640625 -1.375 C 16.210938 -2.832031 13.226562 -4.816406 10.6875 -7.328125 C 8.15625 -9.835938 6.144531 -12.796875 4.65625 -16.203125 C 3.175781 -19.609375 2.4375 -23.226562 2.4375 -27.0625 C 2.4375 -30.894531 3.164062 -34.5 4.625 -37.875 C 6.082031 -41.257812 8.078125 -44.207031 10.609375 -46.71875 C 13.148438 -49.226562 16.125 -51.210938 19.53125 -52.671875 C 22.9375 -54.128906 26.554688 -54.859375 30.390625 -54.859375 C 34.273438 -54.859375 37.921875 -54.113281 41.328125 -52.625 C 44.734375 -51.144531 47.703125 -49.132812 50.234375 -46.59375 C 52.773438 -44.050781 54.785156 -41.078125 56.265625 -37.671875 C 57.753906 -34.273438 58.5 -30.628906 58.5 -26.734375 C 58.5 -24.359375 58.226562 -22.128906 57.6875 -20.046875 C 57.15625 -17.972656 56.265625 -15.75 55.015625 -13.375 L 57.453125 -11.1875 L 58.5 -10.296875 C 60.226562 -8.722656 61.09375 -7.046875 61.09375 -5.265625 C 61.09375 -3.535156 60.5 -2.0625 59.3125 -0.84375 C 58.125 0.363281 56.664062 0.96875 54.9375 0.96875 C 53.425781 0.96875 51.941406 0.320312 50.484375 -0.96875 Z M 30.546875 -42.546875 C 28.390625 -42.546875 26.363281 -42.140625 24.46875 -41.328125 C 22.582031 -40.515625 20.921875 -39.40625 19.484375 -38 C 18.054688 -36.59375 16.9375 -34.941406 16.125 -33.046875 C 15.3125 -31.160156 14.90625 -29.164062 14.90625 -27.0625 C 14.90625 -24.90625 15.320312 -22.878906 16.15625 -20.984375 C 17 -19.097656 18.125 -17.4375 19.53125 -16 C 20.9375 -14.570312 22.597656 -13.453125 24.515625 -12.640625 C 26.429688 -11.828125 28.46875 -11.421875 30.625 -11.421875 C 32.738281 -11.421875 34.738281 -11.828125 36.625 -12.640625 C 38.519531 -13.453125 40.15625 -14.554688 41.53125 -15.953125 C 42.90625 -17.359375 44 -18.992188 44.8125 -20.859375 C 45.625 -22.722656 46.03125 -24.738281 46.03125 -26.90625 C 46.03125 -29.007812 45.625 -31.019531 44.8125 -32.9375 C 44 -34.851562 42.875 -36.515625 41.4375 -37.921875 C 40.007812 -39.328125 38.363281 -40.445312 36.5 -41.28125 C 34.632812 -42.125 32.648438 -42.546875 30.546875 -42.546875 Z M 30.546875 -42.546875 "/></g></g></g><g fill="#011b49" fill-opacity="1"><g transform="translate(59.210168, 77.332721)"><g><path d="M 28.609375 -18.96875 L 28.609375 -32.90625 C 28.660156 -34.738281 29.171875 -36.191406 30.140625 -37.265625 C 31.117188 -38.347656 32.414062 -38.890625 34.03125 -38.890625 C 35.601562 -38.890625 36.882812 -38.335938 37.875 -37.234375 C 38.875 -36.128906 39.375 -34.6875 39.375 -32.90625 L 39.375 -18.0625 C 39.375 -15.414062 39.078125 -13.117188 38.484375 -11.171875 C 37.890625 -9.234375 36.921875 -7.425781 35.578125 -5.75 C 33.953125 -3.695312 31.953125 -2.085938 29.578125 -0.921875 C 27.203125 0.234375 24.71875 0.8125 22.125 0.8125 C 19.09375 0.8125 16.210938 0.0390625 13.484375 -1.5 C 10.765625 -3.039062 8.59375 -5.132812 6.96875 -7.78125 C 6.207031 -9.019531 5.625 -10.554688 5.21875 -12.390625 C 4.820312 -14.234375 4.625 -16.207031 4.625 -18.3125 L 4.625 -32.90625 C 4.675781 -34.738281 5.171875 -36.191406 6.109375 -37.265625 C 7.054688 -38.347656 8.34375 -38.890625 9.96875 -38.890625 C 11.582031 -38.890625 12.890625 -38.335938 13.890625 -37.234375 C 14.890625 -36.128906 15.390625 -34.6875 15.390625 -32.90625 L 15.390625 -19.28125 C 15.390625 -17.664062 15.441406 -16.503906 15.546875 -15.796875 C 15.660156 -15.097656 15.851562 -14.425781 16.125 -13.78125 C 16.613281 -12.695312 17.410156 -11.789062 18.515625 -11.0625 C 19.617188 -10.332031 20.796875 -9.96875 22.046875 -9.96875 C 23.929688 -9.96875 25.492188 -10.640625 26.734375 -11.984375 C 27.984375 -13.335938 28.609375 -14.988281 28.609375 -16.9375 Z M 28.609375 -18.96875 "/></g></g></g><g fill="#011b49" fill-opacity="1"><g transform="translate(100.203137, 77.332721)"><g><path d="M 5.03125 -6.640625 L 5.03125 -32.90625 C 5.082031 -34.738281 5.59375 -36.191406 6.5625 -37.265625 C 7.53125 -38.347656 8.800781 -38.890625 10.375 -38.890625 C 11.988281 -38.890625 13.296875 -38.335938 14.296875 -37.234375 C 15.296875 -36.128906 15.796875 -34.6875 15.796875 -32.90625 L 15.796875 -5.421875 C 15.742188 -3.585938 15.226562 -2.128906 14.25 -1.046875 C 13.28125 0.0234375 12.015625 0.5625 10.453125 0.5625 C 8.828125 0.5625 7.515625 0.0078125 6.515625 -1.09375 C 5.523438 -2.195312 5.03125 -3.640625 5.03125 -5.421875 Z M 10.375 -54.125 C 12.15625 -54.125 13.664062 -53.503906 14.90625 -52.265625 C 16.15625 -51.023438 16.78125 -49.515625 16.78125 -47.734375 C 16.78125 -45.941406 16.144531 -44.410156 14.875 -43.140625 C 13.601562 -41.878906 12.046875 -41.25 10.203125 -41.25 C 9.335938 -41.25 8.515625 -41.421875 7.734375 -41.765625 C 6.953125 -42.117188 6.265625 -42.578125 5.671875 -43.140625 C 5.078125 -43.710938 4.601562 -44.375 4.25 -45.125 C 3.90625 -45.882812 3.734375 -46.695312 3.734375 -47.5625 C 3.734375 -49.457031 4.363281 -51.023438 5.625 -52.265625 C 6.894531 -53.503906 8.476562 -54.125 10.375 -54.125 Z M 10.375 -54.125 "/></g></g></g><g fill="#011b49" fill-opacity="1"><g transform="translate(117.701741, 77.332721)"><g><path d="M 8.015625 0 C 7.265625 0 6.644531 -0.0390625 6.15625 -0.125 C 5.664062 -0.207031 5.15625 -0.378906 4.625 -0.640625 C 3.757812 -1.078125 3.039062 -1.765625 2.46875 -2.703125 C 1.90625 -3.648438 1.625 -4.585938 1.625 -5.515625 C 1.625 -5.890625 1.648438 -6.222656 1.703125 -6.515625 C 1.753906 -6.816406 1.859375 -7.128906 2.015625 -7.453125 C 2.179688 -7.773438 2.425781 -8.164062 2.75 -8.625 C 3.070312 -9.082031 3.476562 -9.640625 3.96875 -10.296875 L 17.90625 -28.4375 L 8.109375 -28.4375 C 6.429688 -28.488281 5.09375 -28.960938 4.09375 -29.859375 C 3.09375 -30.753906 2.59375 -31.929688 2.59375 -33.390625 C 2.59375 -34.898438 3.101562 -36.097656 4.125 -36.984375 C 5.15625 -37.878906 6.484375 -38.328125 8.109375 -38.328125 L 26.90625 -38.328125 C 28.90625 -38.328125 30.507812 -37.8125 31.71875 -36.78125 C 32.9375 -35.757812 33.546875 -34.382812 33.546875 -32.65625 C 33.546875 -31.625 33.085938 -30.488281 32.171875 -29.25 L 17.34375 -9.890625 L 28.4375 -9.890625 C 30.113281 -9.835938 31.4375 -9.363281 32.40625 -8.46875 C 33.382812 -7.570312 33.875 -6.394531 33.875 -4.9375 C 33.875 -3.476562 33.375 -2.289062 32.375 -1.375 C 31.375 -0.457031 30.0625 0 28.4375 0 Z M 8.015625 0 "/></g></g></g><g fill="#011b49" fill-opacity="1"><g transform="translate(150.188138, 77.332721)"><g/></g></g><g fill="#eb1616" fill-opacity="1"><g transform="translate(168.263019, 77.332721)"><g><path d="M 5.921875 -7.78125 L 5.921875 -46.84375 C 6.023438 -51.644531 8.425781 -54.046875 13.125 -54.046875 L 35.984375 -54.046875 C 37.921875 -53.992188 39.457031 -53.46875 40.59375 -52.46875 C 41.726562 -51.46875 42.296875 -50.101562 42.296875 -48.375 C 42.296875 -46.644531 41.710938 -45.265625 40.546875 -44.234375 C 39.390625 -43.210938 37.867188 -42.703125 35.984375 -42.703125 L 18.3125 -42.703125 L 18.3125 -32.171875 L 32.171875 -32.171875 C 33.898438 -32.117188 35.289062 -31.628906 36.34375 -30.703125 C 37.394531 -29.785156 37.921875 -28.546875 37.921875 -26.984375 C 37.921875 -25.472656 37.394531 -24.242188 36.34375 -23.296875 C 35.289062 -22.347656 33.898438 -21.875 32.171875 -21.875 L 18.3125 -21.875 L 18.3125 -6.40625 C 18.3125 -4.289062 17.753906 -2.597656 16.640625 -1.328125 C 15.535156 -0.0664062 14.039062 0.5625 12.15625 0.5625 C 10.257812 0.5625 8.742188 -0.0820312 7.609375 -1.375 C 6.484375 -2.675781 5.921875 -4.351562 5.921875 -6.40625 Z M 5.921875 -7.78125 "/></g></g></g><g fill="#eb1616" fill-opacity="1"><g transform="translate(208.607865, 77.332721)"><g><path d="M 4.859375 -48.046875 C 4.859375 -49.890625 5.359375 -51.347656 6.359375 -52.421875 C 7.359375 -53.503906 8.671875 -54.046875 10.296875 -54.046875 C 11.910156 -54.046875 13.203125 -53.488281 14.171875 -52.375 C 15.148438 -51.269531 15.640625 -49.828125 15.640625 -48.046875 L 15.640625 -5.671875 C 15.640625 -3.722656 15.164062 -2.195312 14.21875 -1.09375 C 13.269531 0.0078125 11.960938 0.5625 10.296875 0.5625 C 8.671875 0.5625 7.359375 0.0078125 6.359375 -1.09375 C 5.359375 -2.195312 4.859375 -3.640625 4.859375 -5.421875 Z M 4.859375 -48.046875 "/></g></g></g><g fill="#eb1616" fill-opacity="1"><g transform="translate(226.106469, 77.332721)"><g><path d="M 22.453125 -39.140625 C 25.203125 -39.140625 27.789062 -38.613281 30.21875 -37.5625 C 32.65625 -36.507812 34.773438 -35.078125 36.578125 -33.265625 C 38.390625 -31.453125 39.820312 -29.328125 40.875 -26.890625 C 41.925781 -24.460938 42.453125 -21.847656 42.453125 -19.046875 C 42.453125 -16.335938 41.925781 -13.78125 40.875 -11.375 C 39.820312 -8.976562 38.378906 -6.875 36.546875 -5.0625 C 34.710938 -3.25 32.578125 -1.816406 30.140625 -0.765625 C 27.710938 0.285156 25.117188 0.8125 22.359375 0.8125 C 19.609375 0.8125 17.003906 0.300781 14.546875 -0.71875 C 12.085938 -1.75 9.953125 -3.15625 8.140625 -4.9375 C 6.328125 -6.71875 4.878906 -8.796875 3.796875 -11.171875 C 2.722656 -13.554688 2.1875 -16.097656 2.1875 -18.796875 C 2.1875 -21.660156 2.710938 -24.332031 3.765625 -26.8125 C 4.816406 -29.300781 6.25 -31.453125 8.0625 -33.265625 C 9.875 -35.078125 12.007812 -36.507812 14.46875 -37.5625 C 16.925781 -38.613281 19.585938 -39.140625 22.453125 -39.140625 Z M 22.453125 -28.359375 C 21.148438 -28.359375 19.929688 -28.113281 18.796875 -27.625 C 17.660156 -27.144531 16.671875 -26.484375 15.828125 -25.640625 C 14.992188 -24.804688 14.347656 -23.820312 13.890625 -22.6875 C 13.429688 -21.550781 13.203125 -20.3125 13.203125 -18.96875 C 13.203125 -17.769531 13.445312 -16.628906 13.9375 -15.546875 C 14.425781 -14.472656 15.085938 -13.53125 15.921875 -12.71875 C 16.753906 -11.90625 17.722656 -11.269531 18.828125 -10.8125 C 19.941406 -10.351562 21.117188 -10.125 22.359375 -10.125 C 23.609375 -10.125 24.785156 -10.367188 25.890625 -10.859375 C 26.992188 -11.347656 27.960938 -11.992188 28.796875 -12.796875 C 29.640625 -13.609375 30.300781 -14.566406 30.78125 -15.671875 C 31.269531 -16.785156 31.515625 -17.960938 31.515625 -19.203125 C 31.515625 -20.503906 31.269531 -21.707031 30.78125 -22.8125 C 30.300781 -23.914062 29.65625 -24.875 28.84375 -25.6875 C 28.03125 -26.5 27.070312 -27.144531 25.96875 -27.625 C 24.863281 -28.113281 23.691406 -28.359375 22.453125 -28.359375 Z M 22.453125 -28.359375 "/></g></g></g><g fill="#eb1616" fill-opacity="1"><g transform="translate(267.747561, 77.332721)"><g><path d="M 11.1875 -3.890625 L 1.375 -30.390625 L 0.96875 -31.515625 C 0.644531 -32.378906 0.484375 -33.242188 0.484375 -34.109375 C 0.484375 -35.515625 1.007812 -36.703125 2.0625 -37.671875 C 3.113281 -38.648438 4.34375 -39.140625 5.75 -39.140625 C 8.289062 -39.140625 10.019531 -37.734375 10.9375 -34.921875 L 11.265625 -33.875 L 16.453125 -17.984375 L 22.53125 -34.515625 C 23.125 -36.085938 23.835938 -37.238281 24.671875 -37.96875 C 25.515625 -38.695312 26.632812 -39.0625 28.03125 -39.0625 C 30.519531 -39.0625 32.273438 -37.707031 33.296875 -35 L 39.546875 -17.984375 L 44.328125 -33.546875 L 44.640625 -34.765625 C 45.671875 -37.679688 47.457031 -39.140625 50 -39.140625 C 51.457031 -39.140625 52.722656 -38.625 53.796875 -37.59375 C 54.878906 -36.570312 55.421875 -35.332031 55.421875 -33.875 C 55.421875 -33.007812 55.257812 -32.144531 54.9375 -31.28125 L 54.53125 -30.140625 L 45.140625 -3.8125 C 44.546875 -2.1875 43.851562 -1.050781 43.0625 -0.40625 C 42.28125 0.238281 41.21875 0.5625 39.875 0.5625 C 38.46875 0.5625 37.367188 0.238281 36.578125 -0.40625 C 35.796875 -1.050781 35.054688 -2.1875 34.359375 -3.8125 L 27.953125 -19.765625 L 21.796875 -3.890625 C 21.097656 -2.160156 20.382812 -0.984375 19.65625 -0.359375 C 18.925781 0.253906 17.859375 0.5625 16.453125 0.5625 C 14.015625 0.5625 12.363281 -0.570312 11.5 -2.84375 Z M 11.1875 -3.890625 "/></g></g></g></g></g></svg>